PathFileType	4	(X/Y/Z)	Patient4_TMGait_0pt6_02_left_17.trc.trc
DataRate	CameraRate	NumFrames	NumMarkers	Units	OrigDataRate	OrigDataStartFrame	OrigNumFrames
83.333333333333	83.333333333333	4	33	mm	83.333333333333	53	       141
Frame#	Time	Sacral			L.Shoulder			Chest			R.Shoulder			Neck			R.ASIS			L.ASIS			R.Thigh.Superior			R.Thigh.Lateral			R.Thigh.Inferior			R.Patella			L.Thigh.Superior			L.Thigh.Lateral			L.Thigh.Inferior			L.Patella			L.Shank.Superior			L.Shank.Lateral			L.Shank.Inferior			R.Shank.Superior			R.Shank.Lateral			R.Shank.Inferior			R.Heel			R.Midfoot.Superior			R.Midfoot.Lateral			R.Toe			L.Heel			L.Midfoot.Lateral			L.Midfoot.Superior			L.Toe			L.Elbow			L.Wrist			R.Elbow			R.Wrist			
		X1	Y1	Z1	X2	Y2	Z2	X3	Y3	Z3	X4	Y4	Z4	X5	Y5	Z5	X6	Y6	Z6	X7	Y7	Z7	X8	Y8	Z8	X9	Y9	Z9	X10	Y10	Z10	X11	Y11	Z11	X12	Y12	Z12	X13	Y13	Z13	X14	Y14	Z14	X15	Y15	Z15	X16	Y16	Z16	X17	Y17	Z17	X18	Y18	Z18	X19	Y19	Z19	X20	Y20	Z20	X21	Y21	Z21	X22	Y22	Z22	X23	Y23	Z23	X24	Y24	Z24	X25	Y25	Z25	X26	Y26	Z26	X27	Y27	Z27	X28	Y28	Z28	X29	Y29	Z29	X30	Y30	Z30	X31	Y31	Z31	X32	Y32	Z32	X33	Y33	Z33	

53	21.514000000000	784.516453297089	1014.017391275190	448.827295710376	978.338810588266	1443.513078581802	287.661163218018	1072.249122928421	1365.758177557077	449.106151516176	984.076081316882	1438.105781026117	621.084161913594	973.557149797105	1498.967323719268	440.745674850047	1005.263720072782	947.864801331181	573.979696409717	1005.487254420133	964.178244662662	299.617599063002	1095.905853841723	788.951400760246	544.294782955374	1066.530661761309	667.433045509639	619.334769008519	1159.332107227245	634.310398852543	539.088875592958	1185.879297546124	519.458439963368	560.583514687622	1046.141464143421	749.877839206480	333.940491273775	953.683539298735	638.414761515931	270.215587244755	1028.525202051864	556.930354290177	339.647397591299	1024.415576981329	487.420523356954	350.919284601658	996.701129203321	416.008723775979	340.423633094932	906.372161121316	304.436568654867	285.582410757840	948.787488597640	192.422925280899	360.552326297555	1105.924425586175	445.028415872426	568.295891450901	982.132929976651	411.709206743305	627.067223175639	963.534081878893	302.968548215005	579.712865209024	767.864094947741	272.305588133793	548.092711558152	914.509590442341	170.279404381321	588.886334964655	804.979187639254	191.580029937526	615.115621464514	946.775955556844	40.760273381396	601.608660118249	816.028986787874	37.899406171852	397.155980717903	890.869293516459	35.514615075604	317.036945221341	973.514244018099	96.395932950214	346.374351171214	1102.688538602895	44.219595311380	318.066948959813	951.003412958497	1100.232333914523	143.029231928381	1110.992380133055	893.531804561472	157.302914480944	894.740071863826	1097.062120784557	724.059766801177	1052.516236931351	892.448363949444	732.480602619439	
54	21.526000000000	783.359949349046	1014.649640012437	447.659399062250	980.123685031825	1443.829138462490	287.554211786022	1072.229572414915	1365.758850729867	449.793182307364	982.738891793533	1438.313024543388	620.917898822749	973.936270779506	1499.226986834918	440.651876410323	1003.416117209203	948.777736174488	574.154975720548	1005.529388455489	964.535859018666	299.586148937816	1096.579185753188	794.023833108353	543.120948179131	1071.008293805940	672.156558300203	619.081217283742	1164.062437571000	641.127527942715	538.287325183314	1193.799974959297	526.761610875052	560.149138298560	1043.421970764558	748.908319423137	334.170362674769	949.711449931089	638.532826974986	270.002237893753	1023.159066240098	556.186051608377	339.753206748343	1018.220201480337	486.885321562774	350.976135802145	990.475271957160	415.790155046927	340.315590265060	899.882111655134	304.474845915695	285.381054518930	941.823530367346	192.343683236772	360.458574019780	1115.525794333128	450.408993760808	568.074348056544	992.142323613311	413.943996362810	625.897713316829	976.980727606356	304.521694777677	578.959603366734	781.851880936897	266.414383590390	545.638316444088	932.312739304624	171.681476591469	588.745358045794	821.989733534754	188.623770680799	614.197600489331	969.959947463304	44.125913803932	603.836793957062	808.744283933413	37.944379341126	397.073536463273	883.610320164146	35.504435379886	316.969859569419	966.308839932499	96.367408706152	346.288020577775	1095.467945251649	44.022486846673	318.012652922592	956.977671023315	1101.069548456854	141.602496934222	1126.213176824150	902.347755260094	157.594706806237	889.544815494765	1097.329714933605	721.856481195111	1029.895247611104	879.716375427542	733.563885679537	
55	21.538000000000	782.237432452000	1015.245173443845	446.591384375320	982.124329321962	1444.044111483868	287.563485745771	1072.353213707685	1365.617930510054	450.605870680855	981.561673388965	1438.449872980742	620.847265109287	974.471305628506	1499.409588695211	440.644597019806	1001.585684912676	949.560148810979	574.445201760747	1005.610773454229	964.836437145652	299.664031605352	1096.992965102876	798.815595447062	542.314380458214	1074.849889610801	676.616213528626	619.076992453843	1168.271750398550	647.615053043448	538.014718293001	1200.984686862572	533.962184458170	560.230118302689	1040.587153273146	747.918751259549	334.601547740857	945.752070361001	638.639200769404	269.819234906953	1017.760780151478	555.447563152009	339.905758586185	1012.007919480700	486.370045640359	351.015625697096	984.235294593077	415.578533489341	340.214704590573	893.382931541053	304.524127842259	285.182696558652	934.863694537604	192.270391301965	360.349302487341	1124.845081964320	455.505054565175	568.204499568364	1002.159284647839	415.188015932952	625.007984999442	991.080024974108	305.128492242360	578.416116793469	796.852263281878	258.417947504864	543.454102586974	951.491613096661	172.065152680350	588.638791827893	840.457768149283	183.952467873383	613.503153357241	995.392005559816	47.275380176551	606.096362795513	801.470161615248	38.007813554822	396.983658150981	876.355784512449	35.492458963416	316.904332578302	959.115131943713	96.335655860311	346.195875840378	1088.257258281475	43.796750915476	317.959989756259	962.820903791738	1101.885036207223	140.432178833288	1141.019088538159	911.687286441943	158.156224637283	885.012749283661	1097.694878690708	720.310374984915	1007.006414398186	868.731145159831	733.964627791233	
56	21.550000000000	781.165192929073	1015.766225029419	445.639202611944	984.271264584450	1444.135567157675	287.701573985836	1072.603481574364	1365.319029640935	451.533124141035	980.554941288841	1438.478531701943	620.889920309605	975.138514061600	1499.491607716000	440.739728430008	999.816910582610	950.178340518742	574.846656747247	1005.687572338862	965.039494332232	299.856671414053	1097.184190041750	803.206032111782	541.892334362985	1078.018293658728	680.656575057918	619.292824876300	1171.932433642717	653.593847581227	538.246800227493	1207.345080329551	540.871492304387	560.777258087909	1037.693383225968	746.907308937104	335.183139233181	941.848474213785	638.720383472060	269.657054322460	1012.403623131831	554.708066753802	340.076695423680	1005.862180777838	485.863117496970	351.023162574630	978.046611955391	415.355205246059	340.115875545030	886.921963553053	304.579718261567	284.985464057222	927.936191244323	192.191650948202	360.222966726014	1133.788443078880	460.195890509769	568.647784535994	1012.205976530000	415.388077889054	624.481615764910	1005.758774295454	304.819289746096	578.145733750177	812.965231825480	248.571003562839	541.760743880950	971.883681471131	171.528593894648	588.671475594521	860.342500113035	177.810527960975	613.205041132242	1022.640394968168	50.197116849228	608.421812762860	794.211640122469	38.090675350175	396.884013317751	869.109210798131	35.478521137815	316.839236998646	951.936492638929	96.298549275995	346.097479944984	1081.058924858967	43.541186780998	317.906085631209	968.564879380901	1102.635176639212	139.511348601411	1155.354112195808	921.446718157961	158.973313232299	880.995376592908	1098.116083346429	719.324499832008	984.132046429409	859.545946865363	733.749852476457	
